<svg xmlns="http://www.w3.org/2000/svg" version="1.1" xmlns:xlink="http://www.w3.org/1999/xlink" xmlns:svgjs="http://svgjs.dev/svgjs" width="1000" height="623" viewBox="0 0 1000 623"><g transform="matrix(1,0,0,1,-0.6060606060606233,0.2522267206477409)"><svg viewBox="0 0 396 247" data-background-color="#ffffff" preserveAspectRatio="xMidYMid meet" height="623" width="1000" xmlns="http://www.w3.org/2000/svg" xmlns:xlink="http://www.w3.org/1999/xlink"><g id="tight-bounds" transform="matrix(1,0,0,1,0.2400000000000091,-0.09999999999999432)"><svg viewBox="0 0 395.52 247.2" height="247.2" width="395.52"><g><svg></svg></g><g><svg viewBox="0 0 395.52 247.2" height="247.2" width="395.52"><g><path xmlns="http://www.w3.org/2000/svg" d="M55.039 247.2l26.403-45.732 2.897 0-24.876 43.086h276.593l-24.875-43.086 2.897 0 26.403 45.732zM197.76 0l26.403 45.732h-2.896l-23.507-40.715-23.507 40.715-2.896 0z" fill="#e83d95" fill-rule="nonzero" stroke="none" stroke-width="1" stroke-linecap="butt" stroke-linejoin="miter" stroke-miterlimit="10" stroke-dasharray="" stroke-dashoffset="0" font-family="none" font-weight="none" font-size="none" text-anchor="none" style="mix-blend-mode: normal" data-fill-palette-color="tertiary"></path></g><g transform="matrix(1,0,0,1,102.92153274211297,67.97999999999999)"><svg viewBox="0 0 189.67693451577404 111.24" height="111.24" width="189.67693451577404"><g><svg viewBox="0 0 395.52 231.96096516596242" height="111.24" width="189.67693451577404"><g transform="matrix(1,0,0,1,0,143.36118228496034)"><svg viewBox="0 0 395.52 88.59978288100208" height="88.59978288100208" width="395.52"><g><svg viewBox="0 0 395.52 88.59978288100208" height="88.59978288100208" width="395.52"><g><svg viewBox="0 0 395.52 88.59978288100208" height="88.59978288100208" width="395.52"><g transform="matrix(1,0,0,1,0,0)"><svg width="395.52" viewBox="1.5499999523162842 -41.20000076293945 239.47999572753906 53.650001525878906" height="88.59978288100208" data-palette-color="#e83d95"><path d="M6.6-2.55L6.6-24.75 1.55-24.75 1.55-26.75 6.6-27.7 6.6-30.15Q6.6-33.15 8.15-35.68 9.7-38.2 12.18-39.7 14.65-41.2 17.35-41.2L17.35-41.2Q18.95-41.2 20.15-40.8L20.15-40.8 20.15-36.7Q19.75-37 18.53-37.3 17.3-37.6 15.7-37.6L15.7-37.6Q13.05-37.6 11.85-36.2 10.65-34.8 10.65-31.45L10.65-31.45 10.65-27.7 17.9-27.7 17.9-24.75 10.65-24.75 10.65-2.5 16.35-2.15 16.35 0 2.2 0 2.2-2.15 6.6-2.55ZM27.85-33Q25.15-33 25.15-35.85L25.15-35.85Q25.15-37.3 26-38.23 26.85-39.15 28.3-39.15L28.3-39.15Q29.8-39.15 30.45-38.33 31.1-37.5 31.1-36.3L31.1-36.3Q31.1-34.75 30.27-33.88 29.45-33 27.9-33L27.9-33 27.85-33ZM26.25-2.55L26.25-24.45 22.35-25.3 22.35-27.55 29.2-28.35 29.3-28.35 30.3-27.55 30.3-2.5 34.65-2.15 34.65 0 21.85 0 21.85-2.15 26.25-2.55ZM42.3-2.55L42.3-37.8 38.05-38.25 38.05-40.1 45.34-40.95 45.4-40.95 46.34-40.3 46.34-2.5 51.05-2.15 51.05 0 37.9 0 37.9-2.15 42.3-2.55ZM54.59 0L54.59-2.15 57.79-2.55 57.79-24.45 53.94-25.3 53.94-27.55 60.29-28.35 61.39-27.55 61.39-25.35 61.34-24.1Q63.19-25.7 66.19-27.05 69.19-28.4 71.64-28.4L71.64-28.4Q74.34-28.4 75.97-27.5 77.59-26.6 78.44-24.7L78.44-24.7Q79.99-26 82.97-27.2 85.94-28.4 88.44-28.4L88.44-28.4Q91.59-28.4 93.32-27.2 95.04-26 95.74-23.5 96.44-21 96.44-16.75L96.44-16.75 96.44-2.55 100.24-2.15 100.24 0 89.04 0 89.04-2.15 92.44-2.55 92.44-16.6Q92.44-19.75 91.99-21.6 91.54-23.45 90.24-24.4 88.94-25.35 86.44-25.35L86.44-25.35Q84.59-25.35 82.57-24.53 80.54-23.7 79.09-22.65L79.09-22.65Q79.59-20.35 79.59-16.65L79.59-16.65 79.59-2.55 83.39-2.15 83.39 0 71.94 0 71.94-2.15 75.54-2.55 75.54-16.7Q75.54-19.9 75.17-21.7 74.79-23.5 73.59-24.4 72.39-25.3 70.04-25.3L70.04-25.3Q68.09-25.3 65.82-24.33 63.54-23.35 61.84-22L61.84-22 61.84-2.55 65.39-2.15 65.39 0 54.59 0ZM107.59 12.45Q106.89 12.45 106.17 12.35 105.44 12.25 105.14 12.1L105.14 12.1 105.14 8.4Q105.74 8.7 107.69 8.7L107.69 8.7Q109.24 8.7 110.52 8.08 111.79 7.45 113.14 5.55 114.49 3.65 115.79 0L115.79 0 113.59 0 104.04-25.05 101.69-25.7 101.69-27.75 112.74-27.75 112.74-25.7 108.69-25.1 113.94-9.8 116.54-1.65 119.04-9.85 123.74-25.1 120.24-25.7 120.24-27.75 129.84-27.75 129.84-25.7 127.24-25.1Q123.49-13.6 121.31-7.13 119.14-0.65 118.54 0.8L118.54 0.8Q116.79 5.2 115.44 7.58 114.09 9.95 112.24 11.2 110.39 12.45 107.59 12.45L107.59 12.45ZM131.89-13.7Q131.89-17.75 133.46-21.13 135.04-24.5 138.16-26.5 141.29-28.5 145.79-28.5L145.79-28.5Q147.74-28.5 149.59-28.03 151.44-27.55 152.79-27L152.79-27 152.59-19.85 150.09-19.85 149.04-24.65Q148.74-26.15 144.74-26.15L144.74-26.15Q140.84-26.15 138.51-23.15 136.19-20.15 136.19-14.95L136.19-14.95Q136.19-8.75 138.69-5.55 141.19-2.35 145.19-2.35L145.19-2.35Q147.29-2.35 149.26-3.05 151.24-3.75 152.54-4.65L152.54-4.65 153.34-3Q151.89-1.55 149.34-0.5 146.79 0.55 144.29 0.55L144.29 0.55Q140.34 0.55 137.54-1.33 134.74-3.2 133.31-6.43 131.89-9.65 131.89-13.7L131.89-13.7ZM157.88-14.05Q157.88-18.4 159.71-21.7 161.53-25 164.51-26.75 167.48-28.5 170.73-28.5L170.73-28.5Q177.03-28.5 180.06-24.4 183.08-20.3 183.08-13.9L183.08-13.9Q183.08-9.55 181.26-6.25 179.44-2.95 176.46-1.2 173.48 0.55 170.23 0.55L170.23 0.55Q163.94 0.55 160.91-3.55 157.88-7.65 157.88-14.05L157.88-14.05ZM170.48-2.05Q174.33-2.05 176.44-5 178.53-7.95 178.53-13.6L178.53-13.6Q178.53-19 176.58-22.45 174.63-25.9 170.53-25.9L170.53-25.9Q166.69-25.9 164.56-22.95 162.44-20 162.44-14.35L162.44-14.35Q162.44-8.9 164.41-5.48 166.38-2.05 170.48-2.05L170.48-2.05ZM198.63 0.55Q195.68 0.55 193.18-0.98 190.68-2.5 189.18-5.6 187.68-8.7 187.68-13.2L187.68-13.2Q187.68-17.5 189.43-20.98 191.18-24.45 194.41-26.48 197.63-28.5 201.93-28.5L201.93-28.5Q204.68-28.5 207.23-27.9L207.23-27.9 207.23-37.8 202.03-38.3 202.03-40.1 210.23-40.95 210.33-40.95 211.28-40.25 211.28-2.25 214.33-2.25 214.33-0.3Q214.08-0.25 212.63 0.1 211.18 0.45 209.53 0.45L209.53 0.45Q208.38 0.45 207.91 0.05 207.43-0.35 207.43-1.7L207.43-1.7 207.43-3.45Q205.88-1.75 203.66-0.6 201.43 0.55 198.63 0.55L198.63 0.55ZM200.28-2.6Q202.43-2.6 204.36-3.63 206.28-4.65 207.23-5.9L207.23-5.9 207.23-24.3Q206.83-25 205.16-25.5 203.48-26 201.58-26L201.58-26Q197.28-26 194.68-22.93 192.08-19.85 192.08-13.6L192.08-13.6Q192.08-8 194.38-5.3 196.68-2.6 200.28-2.6L200.28-2.6ZM230.68 0.55Q224.88 0.55 221.75-3.43 218.63-7.4 218.63-14L218.63-14Q218.63-18.25 220.28-21.55 221.93-24.85 224.85-26.68 227.78-28.5 231.43-28.5L231.43-28.5Q235.88-28.5 238.36-25.95 240.83-23.4 241.03-18.6L241.03-18.6Q241.03-15.5 240.73-14.2L240.73-14.2 222.93-14.2Q222.93-8.95 225.31-5.63 227.68-2.3 231.98-2.3L231.98-2.3Q234.08-2.3 236.28-3.05 238.48-3.8 239.68-4.85L239.68-4.85 240.48-3Q239.03-1.5 236.25-0.48 233.48 0.55 230.68 0.55L230.68 0.55ZM222.98-16.55L236.53-16.55Q236.68-17.6 236.68-18.75L236.68-18.75Q236.63-22.05 235.1-24 233.58-25.95 230.43-25.95L230.43-25.95Q223.58-25.95 222.98-16.55L222.98-16.55Z" opacity="1" transform="matrix(1,0,0,1,0,0)" fill="#e83d95" class="undefined-text-0" data-fill-palette-color="primary" id="text-0"></path></svg></g></svg></g></svg></g></svg></g><g transform="matrix(1,0,0,1,146.54379370633515,0)"><svg viewBox="0 0 102.4324125873297 122.44489994154489" height="122.44489994154489" width="102.4324125873297"><g><svg xmlns="http://www.w3.org/2000/svg" xmlns:xlink="http://www.w3.org/1999/xlink" version="1.1" x="0" y="0" viewBox="21 21.10000228881836 38.900001525878906 46.499996185302734" enable-background="new 0 0 80 80" xml:space="preserve" height="122.44489994154489" width="102.4324125873297" class="icon-icon-0" data-fill-palette-color="accent" id="icon-0"><g fill="#e56d90" data-fill-palette-color="accent"><path fill="#e56d90" d="M40 67.6v-21l19.9 10.5L40 67.6zM42 49.9v14.4l13.6-7.2L42 49.9z" data-fill-palette-color="accent"></path></g><g fill="#e56d90" data-fill-palette-color="accent"><path fill="#e56d90" d="M35 54h-8.2c-2.7 0-5.8-2.5-5.8-5.8 0-2 3.2-4.1 4.1-4.5l8.9-3.5c0.6-0.1 0.8-0.2 0.8-1-0.9-1.1-4-5.1-4-8.4 0-5.4 3.6-9.7 8.1-9.7 4.5 0 8.1 4.3 8.1 9.7 0 3.4-3.3 7.5-4.2 8.5-0.1 0.9 0.1 0.9 0.6 1.1l8.9 3.5 0.4 0.2c2 1.5 3.5 3 3.5 4H54v0.2c0-0.6-1.8-2-2.5-2.5l-0.3-0.3-8.4-3.3c-2-0.7-2-2.2-1.8-3.5l0-0.3 0.2-0.2c1.1-1.2 3.9-4.9 3.9-7.4 0-4.1-2.8-7.7-6.1-7.7-3.3 0-6.1 3.5-6.1 7.7 0 2.6 2.7 6.2 3.7 7.4l0.2 0.3 0 0.4c0.1 1.9-0.6 2.9-2.3 3.3l-8.7 3.4c-1.1 0.5-2.9 2.1-2.9 2.7 0 2 2.1 3.8 3.8 3.8H35V54z" data-fill-palette-color="accent"></path></g></svg></g></svg></g><g></g></svg></g></svg></g></svg></g><defs></defs></svg><rect width="395.52" height="247.2" fill="none" stroke="none" visibility="hidden"></rect></g></svg></g></svg>